<?xml version="1.0" encoding="UTF-8"?> <svg xmlns="http://www.w3.org/2000/svg" width="376" height="100" viewBox="0 0 376 100" fill="none"> <path d="M21.0605 45.0409L28.6705 44.6209C28.7705 47.2009 29.1905 48.9509 29.9105 49.8409C31.0805 51.3109 33.2405 52.0509 36.3805 52.0509C39.0005 52.0509 40.8905 51.5509 42.0605 50.5609C43.2305 49.5609 43.8205 48.3509 43.8205 46.9509C43.8205 45.7309 43.3405 44.6909 42.3805 43.8409C41.7105 43.2209 39.8605 42.2109 36.8505 40.8209C33.8305 39.4209 31.6405 38.2709 30.2505 37.3309C28.8605 36.4009 27.7705 35.1909 26.9705 33.7109C26.1705 32.2209 25.7805 30.4809 25.7805 28.4909C25.7805 25.0009 26.9705 22.1209 29.3405 19.8209C31.7105 17.5309 35.1405 16.3809 39.6305 16.3809C44.1905 16.3809 47.7205 17.5209 50.2205 19.7909C52.7205 22.0709 54.0905 25.1009 54.3505 28.8909L46.6805 29.2609C46.4805 27.2809 45.8105 25.7609 44.6605 24.7109C43.5105 23.6609 41.8205 23.1309 39.5705 23.1309C37.3605 23.1309 35.7805 23.5409 34.8405 24.3709C33.8905 25.2009 33.4205 26.2409 33.4205 27.5009C33.4205 28.6809 33.8505 29.6709 34.7205 30.4409C35.5805 31.2309 37.5005 32.3109 40.4705 33.6909C44.9505 35.7409 47.7905 37.4009 49.0205 38.6809C50.8405 40.5709 51.7505 42.9909 51.7505 45.9309C51.7505 49.5809 50.3905 52.7009 47.6805 55.2909C44.9605 57.8809 41.1905 59.1709 36.3405 59.1709C33.0005 59.1709 30.1005 58.5709 27.6605 57.3809C25.2105 56.1809 23.4805 54.5309 22.4705 52.4009C21.4605 50.2509 20.9905 47.8109 21.0605 45.0409Z" fill="#C8102E"></path> <path d="M56.21 58.4503L64.35 17.0703H74.82C77.74 17.0703 79.61 17.1203 80.42 17.2103C82.02 17.3703 83.46 17.7203 84.73 18.2503C85.99 18.7803 87.14 19.5103 88.17 20.4703C89.21 21.4203 90.1 22.5603 90.85 23.9003C91.6 25.2403 92.18 26.7703 92.59 28.5203C93 30.2603 93.2099 32.1603 93.2099 34.2303C93.2099 38.6903 92.4 42.6503 90.81 46.1003C89.21 49.5603 87.2 52.3003 84.77 54.3303C82.91 55.9103 80.51 57.0803 77.58 57.8403C75.91 58.2503 73.36 58.4603 69.91 58.4603H56.21V58.4503Z" fill="#C8102E"></path> <path d="M65.5098 51.7906H69.5698C72.5098 51.7906 74.6298 51.6006 75.9498 51.2106C77.2598 50.8106 78.4798 50.1006 79.5698 49.0406C81.1498 47.5206 82.4698 45.4806 83.5398 42.9506C84.6198 40.4106 85.1598 37.4106 85.1598 33.9706C85.1598 31.0306 84.7198 28.8306 83.8198 27.3506C82.9198 25.8806 81.8298 24.8906 80.5198 24.4006C79.6098 24.0606 77.9698 23.8906 75.6098 23.8906H70.9698L65.5098 51.7906Z" fill="black"></path> <path d="M94.9502 58.4503L103.09 17.0703H111.07L102.96 58.4503H94.9502Z" fill="#C8102E"></path> <path d="M126.7 45.0409L134.31 44.6209C134.41 47.2009 134.83 48.9509 135.55 49.8409C136.72 51.3109 138.88 52.0509 142.02 52.0509C144.64 52.0509 146.53 51.5509 147.7 50.5609C148.87 49.5609 149.46 48.3509 149.46 46.9509C149.46 45.7309 148.98 44.6909 148.02 43.8409C147.35 43.2209 145.5 42.2109 142.49 40.8209C139.47 39.4209 137.28 38.2709 135.89 37.3309C134.5 36.4009 133.41 35.1909 132.61 33.7109C131.81 32.2209 131.41 30.4809 131.41 28.4909C131.41 25.0009 132.6 22.1209 134.97 19.8209C137.34 17.5309 140.77 16.3809 145.26 16.3809C149.82 16.3809 153.35 17.5209 155.85 19.7909C158.35 22.0709 159.73 25.1009 159.98 28.8909L152.31 29.2609C152.11 27.2809 151.44 25.7609 150.29 24.7109C149.14 23.6609 147.45 23.1309 145.2 23.1309C142.99 23.1309 141.41 23.5409 140.47 24.3709C139.52 25.2009 139.05 26.2409 139.05 27.5009C139.05 28.6809 139.48 29.6709 140.35 30.4409C141.21 31.2309 143.13 32.3109 146.1 33.6909C150.58 35.7409 153.42 37.4009 154.65 38.6809C156.47 40.5709 157.38 42.9909 157.38 45.9309C157.38 49.5809 156.02 52.7009 153.31 55.2909C150.59 57.8809 146.82 59.1709 141.97 59.1709C138.63 59.1709 135.73 58.5709 133.29 57.3809C130.84 56.1809 129.11 54.5309 128.1 52.4009C127.1 50.2509 126.63 47.8109 126.7 45.0409Z" fill="white"></path> <path d="M162.77 45.9998C162.77 40.4498 164.25 36.0198 167.19 32.7198C170.13 29.4198 174.01 27.7598 178.8 27.7598C182.95 27.7598 186.2 28.9798 188.53 31.4198C190.87 33.8598 192.03 37.1298 192.03 41.2598C192.03 46.1198 190.57 50.3098 187.65 53.8397C184.73 57.3897 180.82 59.1497 175.93 59.1497C173.28 59.1497 170.93 58.5897 168.88 57.4497C166.83 56.3197 165.3 54.7197 164.29 52.6497C163.27 50.5997 162.77 48.3698 162.77 45.9998Z" fill="white"></path> <path d="M184.46 40.2094C184.46 38.2894 183.94 36.7594 182.88 35.5894C181.83 34.4294 180.47 33.8594 178.81 33.8594C177.16 33.8594 175.7 34.3994 174.43 35.4894C173.16 36.5694 172.17 38.1394 171.46 40.1994C170.75 42.2594 170.4 44.1594 170.4 45.8794C170.4 48.0294 170.95 49.7294 172.05 50.9994C173.15 52.2494 174.52 52.8894 176.19 52.8894C178.27 52.8894 180.03 51.9394 181.44 50.0394C183.45 47.3494 184.46 44.0794 184.46 40.2094Z" fill="black"></path> <path d="M194.78 58.4503L202.92 17.0703H210.51L202.39 58.4503H194.78Z" fill="white"></path> <path d="M215.76 28.4805H223.37L219.9 46.2205C219.48 48.3505 219.26 49.6805 219.26 50.2105C219.26 51.0705 219.57 51.8205 220.17 52.4405C220.78 53.0605 221.54 53.3705 222.48 53.3705C223.15 53.3705 223.81 53.2205 224.47 52.9605C225.12 52.6905 225.79 52.2805 226.48 51.7205C227.18 51.1705 227.79 50.5305 228.34 49.8205C228.89 49.1005 229.41 48.1605 229.88 47.0005C230.22 46.1305 230.59 44.7205 230.97 42.7605L233.78 28.4805H241.39L235.5 58.4505H228.39L229.19 54.3805C226.08 57.5605 222.69 59.1505 219.03 59.1505C216.71 59.1505 214.89 58.4505 213.57 57.0405C212.24 55.6205 211.58 53.7305 211.58 51.3605C211.58 50.3205 211.88 48.2605 212.48 45.1705L215.76 28.4805Z" fill="white"></path> <path d="M245.01 34.4899L246.18 28.4798H249.89L250.82 23.6798L259.55 18.0898L257.5 28.4798H262.14L260.97 34.4899H256.3L253.84 47.0399C253.4 49.3199 253.18 50.6099 253.18 50.9399C253.18 51.5599 253.36 52.0399 253.73 52.3899C254.1 52.7399 254.77 52.9099 255.75 52.9099C256.08 52.9099 256.93 52.8399 258.27 52.7099L257.08 58.7199C255.78 59.0099 254.43 59.1399 253.05 59.1399C250.36 59.1399 248.41 58.5899 247.18 57.4899C245.97 56.3899 245.35 54.8599 245.35 52.8999C245.35 51.9799 245.68 49.8499 246.34 46.5199L248.69 34.4699H245.01V34.4899Z" fill="white"></path> <path d="M269.31 17.0703H276.92L275.48 24.4103H267.88L269.31 17.0703Z" fill="white"></path> <path d="M267.08 28.4805H274.69L268.8 58.4505H261.19L267.08 28.4805Z" fill="white"></path> <path d="M277.39 45.9998C277.39 40.4498 278.87 36.0198 281.81 32.7198C284.75 29.4198 288.63 27.7598 293.42 27.7598C297.58 27.7598 300.82 28.9798 303.15 31.4198C305.49 33.8598 306.65 37.1298 306.65 41.2598C306.65 46.1198 305.19 50.3098 302.27 53.8397C299.35 57.3897 295.44 59.1497 290.55 59.1497C287.9 59.1497 285.55 58.5897 283.5 57.4497C281.45 56.3197 279.92 54.7197 278.91 52.6497C277.9 50.5997 277.39 48.3698 277.39 45.9998Z" fill="white"></path> <path d="M299.09 40.2094C299.09 38.2894 298.57 36.7594 297.51 35.5894C296.46 34.4294 295.1 33.8594 293.44 33.8594C291.79 33.8594 290.33 34.3994 289.06 35.4894C287.79 36.5694 286.8 38.1394 286.09 40.1994C285.38 42.2594 285.03 44.1594 285.03 45.8794C285.03 48.0294 285.58 49.7294 286.68 50.9994C287.78 52.2494 289.15 52.8894 290.82 52.8894C292.9 52.8894 294.66 51.9394 296.07 50.0394C298.08 47.3494 299.09 44.0794 299.09 40.2094Z" fill="black"></path> <path d="M315.45 28.4798H322.66L321.92 32.3698C323.72 30.7098 325.41 29.5398 326.97 28.8198C328.54 28.1198 330.18 27.7598 331.92 27.7598C334.24 27.7598 336.06 28.4698 337.4 29.8798C338.73 31.2998 339.4 33.1598 339.4 35.4998C339.4 36.5598 339.11 38.5498 338.52 41.4798L335.21 58.4498H327.6L330.94 41.4298C331.44 38.8998 331.68 37.3698 331.68 36.8898C331.68 35.8498 331.4 35.0398 330.82 34.4398C330.25 33.8498 329.44 33.5498 328.42 33.5498C327.31 33.5498 326.07 34.0498 324.71 35.0398C323.34 36.0398 322.28 37.3598 321.5 38.9898C320.94 40.1698 320.31 42.5398 319.59 46.1398L317.18 58.4398H309.57L315.45 28.4798Z" fill="white"></path> <path d="M22.55 77.5603C22.55 76.7203 22.88 76.1003 23.54 75.6903C24.2 75.2803 24.98 75.0703 25.89 75.0703C27.08 75.0703 28.14 75.3303 29.06 75.8503V76.8803C28.19 76.3203 27.16 76.0403 25.97 76.0403C25.32 76.0403 24.77 76.1603 24.32 76.4103C23.86 76.6603 23.64 77.0303 23.64 77.5403C23.64 77.9703 23.85 78.3203 24.26 78.6003C24.67 78.8803 25.17 79.1003 25.77 79.2503C26.36 79.4103 26.96 79.5803 27.54 79.7603C28.13 79.9403 28.63 80.2303 29.04 80.6203C29.45 81.0103 29.66 81.5103 29.66 82.1203C29.66 82.9703 29.32 83.5903 28.63 83.9903C27.95 84.3903 27.09 84.5903 26.05 84.5903C24.61 84.5903 23.44 84.2903 22.54 83.7003V82.6403C23.5 83.2903 24.65 83.6103 25.99 83.6103C27.71 83.6103 28.57 83.1303 28.57 82.1703C28.57 81.7403 28.36 81.3903 27.95 81.1203C27.54 80.8503 27.04 80.6303 26.44 80.4703C25.85 80.3103 25.25 80.1403 24.67 79.9503C24.08 79.7603 23.58 79.4703 23.17 79.0703C22.75 78.6703 22.55 78.1603 22.55 77.5603Z" fill="white"></path> <path d="M31.2002 79.8303C31.2002 78.3503 31.6502 77.1903 32.5602 76.3403C33.4602 75.4903 34.5102 75.0703 35.7002 75.0703C36.3702 75.0703 36.9702 75.1703 37.5002 75.3803C38.0302 75.5903 38.4602 75.8703 38.7802 76.2203C39.1002 76.5703 39.3702 76.9803 39.5902 77.4303C39.8102 77.8903 39.9202 78.3603 39.9402 78.8403C39.9602 79.3303 39.9302 79.8203 39.8502 80.3103H32.2802C32.3402 81.4003 32.7602 82.2203 33.5302 82.7703C34.3002 83.3203 35.2402 83.6003 36.3602 83.6003C37.5002 83.6003 38.4902 83.3503 39.3402 82.8603V83.9203C38.5202 84.3603 37.4702 84.5803 36.2102 84.5803C34.7802 84.5803 33.5902 84.1803 32.6302 83.3703C31.6802 82.5703 31.2002 81.3903 31.2002 79.8303ZM38.9102 79.3803C39.0002 78.5803 38.7902 77.8303 38.2702 77.1203C37.7602 76.4103 36.9302 76.0603 35.7702 76.0603C34.8302 76.0603 34.0302 76.3503 33.3602 76.9403C32.6902 77.5303 32.3302 78.3403 32.2802 79.3803H38.9102Z" fill="white"></path> <path d="M43.3105 84.3903H42.2305V75.2803H43.2005V76.8003C43.5405 76.3603 44.0005 75.9603 44.5705 75.6003C45.1405 75.2503 45.7905 75.0703 46.5305 75.0703C47.2305 75.0703 47.8305 75.2303 48.3405 75.5403C48.8505 75.8503 49.2405 76.2803 49.4905 76.8403C50.5205 75.6603 51.6705 75.0703 52.9405 75.0703C53.9805 75.0703 54.8005 75.4003 55.4005 76.0703C56.0005 76.7303 56.3005 77.5903 56.3005 78.6403V84.3903H55.2405V78.6203C55.2405 77.8603 55.0205 77.2403 54.5905 76.7703C54.1505 76.3003 53.5705 76.0603 52.8305 76.0603C51.6805 76.0603 50.6905 76.6503 49.8505 77.8303C49.8905 78.1003 49.9105 78.3703 49.9105 78.6503V84.4003H48.8305V78.6303C48.8305 77.8703 48.6105 77.2503 48.1805 76.7803C47.7505 76.3103 47.1605 76.0703 46.4205 76.0703C45.2205 76.0703 44.1905 76.7203 43.3305 78.0103V84.3903H43.3105Z" fill="white"></path> <path d="M66.2998 82.7398C66.2998 83.2698 66.5698 83.5398 67.1198 83.5398C67.3198 83.5398 67.5598 83.4998 67.8198 83.4098V84.2798C67.4798 84.4098 67.1498 84.4698 66.8298 84.4698C65.8698 84.4698 65.3398 83.9998 65.2498 83.0698C64.2998 84.0998 63.0498 84.6098 61.5098 84.6098C60.6398 84.6098 59.8898 84.3798 59.2698 83.9198C58.6498 83.4598 58.3398 82.7898 58.3398 81.9198C58.3398 80.8798 58.7298 80.1298 59.5198 79.6498C60.2998 79.1798 61.2498 78.9398 62.3698 78.9398C63.3398 78.9398 64.2998 79.0698 65.2398 79.3398V78.7298C65.2398 77.9198 64.9898 77.2698 64.4798 76.7898C63.9698 76.3098 63.2598 76.0698 62.3398 76.0698C61.1798 76.0698 60.0898 76.2898 59.0798 76.7198V75.6598C60.1598 75.2798 61.2798 75.0898 62.4598 75.0898C63.6698 75.0898 64.6198 75.4198 65.2998 76.0798C65.9798 76.7398 66.3198 77.6698 66.3198 78.8698V82.7398H66.2998ZM59.4498 81.8498C59.4498 82.4398 59.6698 82.8998 60.1098 83.2098C60.5498 83.5198 61.0898 83.6798 61.7198 83.6798C62.4198 83.6798 63.0698 83.5298 63.6898 83.2098C64.3098 82.8998 64.8198 82.4598 65.2298 81.8898V80.2198C64.2698 79.9698 63.3598 79.8398 62.5198 79.8398C61.6598 79.8398 60.9298 79.9998 60.3398 80.3198C59.7398 80.6398 59.4498 81.1498 59.4498 81.8498Z" fill="white"></path> <path d="M70.3997 76.9103C70.7497 76.4203 71.2397 75.9903 71.8597 75.6203C72.4797 75.2503 73.1697 75.0703 73.9297 75.0703C75.0097 75.0703 75.8897 75.4103 76.5897 76.0903C77.2897 76.7703 77.6297 77.6603 77.6297 78.7803V84.4003H76.5497V78.9003C76.5497 77.9903 76.2997 77.2903 75.7897 76.7903C75.2797 76.3003 74.6297 76.0503 73.8197 76.0503C73.0997 76.0503 72.4597 76.2503 71.8897 76.6603C71.3297 77.0703 70.8697 77.5603 70.5097 78.1403V84.3903H69.4297V75.2803H70.3997V76.9103Z" fill="white"></path> <path d="M80.8999 72.3698L81.9599 72.0898V75.2798H85.7799V76.2898H81.9599V81.5698C81.9599 82.2798 82.1299 82.7898 82.4699 83.1098C82.8099 83.4298 83.3399 83.5798 84.0599 83.5798C84.7399 83.5798 85.4099 83.4398 86.0499 83.1598V84.1498C85.3799 84.4398 84.6199 84.5898 83.7699 84.5898C82.8699 84.5898 82.1699 84.3498 81.6499 83.8698C81.1399 83.3898 80.8799 82.6898 80.8799 81.7598V76.2898H79.1699V75.2798H80.8999V72.3698Z" fill="white"></path> <path d="M89.1397 72.5091C89.1397 72.7391 89.0697 72.9191 88.9297 73.0391C88.7897 73.1691 88.6197 73.2291 88.4197 73.2291C88.1997 73.2291 88.0297 73.1691 87.8897 73.0491C87.7497 72.9291 87.6797 72.7491 87.6797 72.5091C87.6797 72.2891 87.7497 72.1191 87.8997 71.9891C88.0497 71.8591 88.2197 71.7891 88.4197 71.7891C88.6197 71.7891 88.7897 71.8591 88.9297 71.9891C89.0697 72.1191 89.1397 72.2891 89.1397 72.5091ZM88.9597 84.3891H87.8797V75.2791H88.9597V84.3891Z" fill="white"></path> <path d="M91.3604 79.8901C91.3604 78.8301 91.6104 77.9201 92.1104 77.1701C92.6104 76.4201 93.2204 75.8801 93.9404 75.5601C94.6604 75.2401 95.4404 75.0801 96.2704 75.0801C97.3804 75.0801 98.3004 75.3301 99.0204 75.8201V76.8601C98.3104 76.3301 97.4404 76.0601 96.4004 76.0601C95.3104 76.0601 94.3804 76.3801 93.6004 77.0301C92.8204 77.6801 92.4304 78.6201 92.4304 79.8801C92.4304 81.0801 92.8104 82.0101 93.5604 82.6501C94.3104 83.3001 95.2204 83.6201 96.2804 83.6201C97.3304 83.6201 98.2704 83.3701 99.1104 82.8801V83.9601C98.2504 84.3901 97.2604 84.6101 96.1304 84.6101C94.8404 84.6101 93.7204 84.2101 92.7704 83.4001C91.8304 82.5701 91.3604 81.4101 91.3604 79.8901Z" fill="white"></path> <path d="M113.94 71.0996H115V84.3896H114.03V82.5096C113.09 83.8996 111.8 84.5996 110.14 84.5996C108.84 84.5996 107.75 84.1496 106.89 83.2596C106.03 82.3696 105.6 81.2296 105.6 79.8296C105.6 78.4396 106.03 77.2996 106.89 76.3996C107.75 75.5096 108.83 75.0596 110.14 75.0596C111 75.0596 111.75 75.2496 112.4 75.6196C113.05 75.9896 113.56 76.4596 113.94 77.0296V71.0996ZM113.94 78.5996C113.66 77.8796 113.19 77.2696 112.54 76.7896C111.88 76.2996 111.13 76.0596 110.28 76.0596C109.24 76.0596 108.38 76.3996 107.71 77.0896C107.03 77.7696 106.69 78.6896 106.69 79.8396C106.69 80.9796 107.03 81.8896 107.72 82.5796C108.4 83.2696 109.26 83.6096 110.28 83.6096C111.13 83.6096 111.88 83.3696 112.54 82.8796C113.2 82.3896 113.67 81.7896 113.94 81.0696V78.5996Z" fill="white"></path> <path d="M125.12 82.7398C125.12 83.2698 125.39 83.5398 125.94 83.5398C126.14 83.5398 126.38 83.4998 126.64 83.4098V84.2798C126.3 84.4098 125.97 84.4698 125.65 84.4698C124.69 84.4698 124.16 83.9998 124.07 83.0698C123.12 84.0998 121.87 84.6098 120.33 84.6098C119.46 84.6098 118.71 84.3798 118.09 83.9198C117.47 83.4598 117.16 82.7898 117.16 81.9198C117.16 80.8798 117.55 80.1298 118.34 79.6498C119.12 79.1798 120.07 78.9398 121.19 78.9398C122.16 78.9398 123.12 79.0698 124.06 79.3398V78.7298C124.06 77.9198 123.81 77.2698 123.3 76.7898C122.79 76.3098 122.08 76.0698 121.16 76.0698C120 76.0698 118.91 76.2898 117.9 76.7198V75.6598C118.98 75.2798 120.1 75.0898 121.28 75.0898C122.49 75.0898 123.44 75.4198 124.12 76.0798C124.8 76.7398 125.14 77.6698 125.14 78.8698V82.7398H125.12ZM118.27 81.8498C118.27 82.4398 118.49 82.8998 118.93 83.2098C119.37 83.5198 119.91 83.6798 120.54 83.6798C121.24 83.6798 121.89 83.5298 122.51 83.2098C123.13 82.8998 123.64 82.4598 124.05 81.8898V80.2198C123.09 79.9698 122.18 79.8398 121.34 79.8398C120.48 79.8398 119.75 79.9998 119.16 80.3198C118.57 80.6398 118.27 81.1498 118.27 81.8498Z" fill="white"></path> <path d="M128.791 72.3698L129.851 72.0898V75.2798H133.671V76.2898H129.851V81.5698C129.851 82.2798 130.021 82.7898 130.361 83.1098C130.701 83.4298 131.231 83.5798 131.951 83.5798C132.631 83.5798 133.301 83.4398 133.941 83.1598V84.1498C133.271 84.4398 132.511 84.5898 131.661 84.5898C130.761 84.5898 130.061 84.3498 129.541 83.8698C129.031 83.3898 128.771 82.6898 128.771 81.7598V76.2898H127.061V75.2798H128.771V72.3698H128.791Z" fill="white"></path> <path d="M142.87 82.7398C142.87 83.2698 143.14 83.5398 143.69 83.5398C143.89 83.5398 144.13 83.4998 144.39 83.4098V84.2798C144.05 84.4098 143.72 84.4698 143.4 84.4698C142.44 84.4698 141.91 83.9998 141.82 83.0698C140.87 84.0998 139.62 84.6098 138.08 84.6098C137.21 84.6098 136.46 84.3798 135.84 83.9198C135.22 83.4598 134.91 82.7898 134.91 81.9198C134.91 80.8798 135.3 80.1298 136.09 79.6498C136.87 79.1798 137.82 78.9398 138.94 78.9398C139.91 78.9398 140.87 79.0698 141.81 79.3398V78.7298C141.81 77.9198 141.56 77.2698 141.05 76.7898C140.54 76.3098 139.83 76.0698 138.91 76.0698C137.75 76.0698 136.66 76.2898 135.65 76.7198V75.6598C136.73 75.2798 137.85 75.0898 139.03 75.0898C140.24 75.0898 141.19 75.4198 141.87 76.0798C142.55 76.7398 142.89 77.6698 142.89 78.8698V82.7398H142.87ZM136.02 81.8498C136.02 82.4398 136.24 82.8998 136.68 83.2098C137.12 83.5198 137.66 83.6798 138.29 83.6798C138.99 83.6798 139.64 83.5298 140.26 83.2098C140.88 82.8998 141.39 82.4598 141.8 81.8898V80.2198C140.84 79.9698 139.93 79.8398 139.09 79.8398C138.23 79.8398 137.5 79.9998 136.91 80.3198C136.32 80.6398 136.02 81.1498 136.02 81.8498Z" fill="white"></path> <path d="M151.72 72.5091C151.72 72.7391 151.65 72.9191 151.51 73.0391C151.37 73.1691 151.2 73.2291 151 73.2291C150.78 73.2291 150.61 73.1691 150.47 73.0491C150.33 72.9291 150.26 72.7491 150.26 72.5091C150.26 72.2891 150.33 72.1191 150.48 71.9891C150.63 71.8591 150.8 71.7891 151 71.7891C151.2 71.7891 151.37 71.8591 151.51 71.9891C151.65 72.1191 151.72 72.2891 151.72 72.5091ZM151.55 84.3891H150.47V75.2791H151.55V84.3891Z" fill="white"></path> <path d="M155.531 76.9103C155.881 76.4203 156.371 75.9903 156.991 75.6203C157.611 75.2503 158.301 75.0703 159.061 75.0703C160.141 75.0703 161.021 75.4103 161.721 76.0903C162.421 76.7703 162.761 77.6603 162.761 78.7803V84.4003H161.681V78.9003C161.681 77.9903 161.431 77.2903 160.921 76.7903C160.411 76.3003 159.761 76.0503 158.951 76.0503C158.231 76.0503 157.591 76.2503 157.021 76.6603C156.461 77.0703 156.001 77.5603 155.641 78.1403V84.3903H154.561V75.2803H155.531V76.9103Z" fill="white"></path> <path d="M166.03 72.3698L167.09 72.0898V75.2798H170.91V76.2898H167.09V81.5698C167.09 82.2798 167.26 82.7898 167.6 83.1098C167.94 83.4298 168.47 83.5798 169.19 83.5798C169.87 83.5798 170.54 83.4398 171.18 83.1598V84.1498C170.51 84.4398 169.75 84.5898 168.9 84.5898C168 84.5898 167.3 84.3498 166.78 83.8698C166.27 83.3898 166.01 82.6898 166.01 81.7598V76.2898H164.3V75.2798H166.01V72.3698H166.03Z" fill="white"></path> <path d="M172.33 79.8303C172.33 78.3503 172.78 77.1903 173.69 76.3403C174.59 75.4903 175.64 75.0703 176.83 75.0703C177.5 75.0703 178.1 75.1703 178.63 75.3803C179.16 75.5903 179.59 75.8703 179.91 76.2203C180.23 76.5703 180.5 76.9803 180.72 77.4303C180.94 77.8903 181.05 78.3603 181.07 78.8403C181.09 79.3303 181.06 79.8203 180.98 80.3103H173.41C173.47 81.4003 173.89 82.2203 174.66 82.7703C175.43 83.3203 176.37 83.6003 177.49 83.6003C178.63 83.6003 179.62 83.3503 180.47 82.8603V83.9203C179.65 84.3603 178.6 84.5803 177.34 84.5803C175.91 84.5803 174.72 84.1803 173.76 83.3703C172.81 82.5703 172.33 81.3903 172.33 79.8303ZM180.04 79.3803C180.13 78.5803 179.92 77.8303 179.4 77.1203C178.89 76.4103 178.06 76.0603 176.9 76.0603C175.96 76.0603 175.16 76.3503 174.49 76.9403C173.82 77.5303 173.46 78.3403 173.41 79.3803H180.04Z" fill="white"></path> <path d="M184.02 83.2586C183.16 82.3686 182.73 81.2286 182.73 79.8286C182.73 78.4386 183.16 77.2986 184.02 76.3986C184.88 75.5086 185.96 75.0586 187.27 75.0586C188.93 75.0586 190.22 75.7586 191.16 77.1486V75.2686H192.13V84.3786C192.13 85.8386 191.66 86.9286 190.72 87.6586C189.78 88.3886 188.62 88.7586 187.26 88.7586C185.94 88.7586 184.73 88.4786 183.62 87.9086V86.8686C184.73 87.4786 185.9 87.7786 187.13 87.7786C188.27 87.7786 189.21 87.4986 189.96 86.9486C190.71 86.3986 191.08 85.5386 191.08 84.3786V82.5786C190.71 83.1686 190.2 83.6586 189.55 84.0286C188.9 84.3986 188.14 84.5886 187.28 84.5886C185.97 84.5986 184.89 84.1486 184.02 83.2586ZM191.07 78.5986C190.79 77.8786 190.32 77.2686 189.67 76.7886C189.01 76.2986 188.26 76.0586 187.41 76.0586C186.37 76.0586 185.51 76.3986 184.84 77.0886C184.16 77.7686 183.82 78.6886 183.82 79.8386C183.82 80.9786 184.16 81.8886 184.85 82.5786C185.53 83.2686 186.39 83.6086 187.41 83.6086C188.26 83.6086 189.01 83.3786 189.67 82.9186C190.33 82.4586 190.8 81.8886 191.07 81.1986V78.5986Z" fill="white"></path> <path d="M196.06 77.3798C196.4 76.6798 196.94 76.1098 197.67 75.6698C198.4 75.2298 199.21 75.0298 200.08 75.0798V76.1598C199.12 76.0798 198.29 76.2998 197.59 76.8098C196.89 77.3198 196.42 77.9898 196.17 78.8098V84.3698H195.09V75.2598H196.06V77.3798Z" fill="white"></path> <path d="M208.83 82.7398C208.83 83.2698 209.1 83.5398 209.65 83.5398C209.85 83.5398 210.09 83.4998 210.35 83.4098V84.2798C210.01 84.4098 209.68 84.4698 209.36 84.4698C208.4 84.4698 207.87 83.9998 207.78 83.0698C206.83 84.0998 205.58 84.6098 204.04 84.6098C203.17 84.6098 202.42 84.3798 201.8 83.9198C201.18 83.4598 200.87 82.7898 200.87 81.9198C200.87 80.8798 201.26 80.1298 202.05 79.6498C202.83 79.1798 203.78 78.9398 204.9 78.9398C205.87 78.9398 206.83 79.0698 207.77 79.3398V78.7298C207.77 77.9198 207.52 77.2698 207.01 76.7898C206.5 76.3098 205.79 76.0698 204.87 76.0698C203.71 76.0698 202.62 76.2898 201.61 76.7198V75.6598C202.69 75.2798 203.81 75.0898 204.99 75.0898C206.2 75.0898 207.15 75.4198 207.83 76.0798C208.51 76.7398 208.85 77.6698 208.85 78.8698V82.7398H208.83ZM201.98 81.8498C201.98 82.4398 202.2 82.8998 202.64 83.2098C203.08 83.5198 203.62 83.6798 204.25 83.6798C204.95 83.6798 205.6 83.5298 206.22 83.2098C206.84 82.8998 207.35 82.4598 207.76 81.8898V80.2198C206.8 79.9698 205.89 79.8398 205.05 79.8398C204.19 79.8398 203.46 79.9998 202.87 80.3198C202.28 80.6398 201.98 81.1498 201.98 81.8498Z" fill="white"></path> <path d="M212.501 72.3698L213.561 72.0898V75.2798H217.381V76.2898H213.561V81.5698C213.561 82.2798 213.731 82.7898 214.071 83.1098C214.411 83.4298 214.941 83.5798 215.661 83.5798C216.341 83.5798 217.011 83.4398 217.651 83.1598V84.1498C216.981 84.4398 216.221 84.5898 215.371 84.5898C214.471 84.5898 213.771 84.3498 213.251 83.8698C212.741 83.3898 212.481 82.6898 212.481 81.7598V76.2898H210.771V75.2798H212.481V72.3698H212.501Z" fill="white"></path> <path d="M220.74 72.5091C220.74 72.7391 220.67 72.9191 220.53 73.0391C220.39 73.1691 220.22 73.2291 220.02 73.2291C219.8 73.2291 219.63 73.1691 219.49 73.0491C219.35 72.9291 219.28 72.7491 219.28 72.5091C219.28 72.2891 219.35 72.1191 219.5 71.9891C219.65 71.8591 219.82 71.7891 220.02 71.7891C220.22 71.7891 220.39 71.8591 220.53 71.9891C220.67 72.1191 220.74 72.2891 220.74 72.5091ZM220.57 84.3891H219.49V75.2791H220.57V84.3891Z" fill="white"></path> <path d="M224.37 83.3201C223.43 82.4701 222.96 81.3001 222.96 79.8401C222.96 78.3701 223.43 77.2101 224.37 76.3601C225.31 75.5101 226.44 75.0801 227.74 75.0801C229.06 75.0801 230.19 75.5101 231.13 76.3601C232.07 77.2101 232.54 78.3801 232.54 79.8401C232.54 81.3101 232.07 82.4701 231.13 83.3201C230.19 84.1701 229.06 84.6001 227.74 84.6001C226.44 84.6001 225.31 84.1701 224.37 83.3201ZM230.4 82.5701C231.11 81.9001 231.46 80.9901 231.46 79.8401C231.46 78.6901 231.11 77.7801 230.4 77.1101C229.69 76.4401 228.81 76.1001 227.76 76.1001C226.71 76.1001 225.83 76.4401 225.11 77.1101C224.39 77.7801 224.04 78.6901 224.04 79.8401C224.04 80.9901 224.4 81.9001 225.11 82.5701C225.82 83.2401 226.71 83.5801 227.76 83.5801C228.81 83.5701 229.69 83.2401 230.4 82.5701Z" fill="white"></path> <path d="M235.85 76.9103C236.2 76.4203 236.69 75.9903 237.31 75.6203C237.93 75.2503 238.62 75.0703 239.38 75.0703C240.46 75.0703 241.34 75.4103 242.04 76.0903C242.74 76.7703 243.08 77.6603 243.08 78.7803V84.4003H242V78.9003C242 77.9903 241.75 77.2903 241.24 76.7903C240.73 76.3003 240.08 76.0503 239.27 76.0503C238.55 76.0503 237.91 76.2503 237.34 76.6603C236.78 77.0703 236.32 77.5603 235.96 78.1403V84.3903H234.88V75.2803H235.85V76.9103Z" fill="white"></path> </svg> 